<svg version="1.1" xmlns="http://www.w3.org/2000/svg" viewBox="0 0 829.3333129882812 526.6666870117188" width="829.3333129882812" height="526.6666870117188"><!-- svg-source:excalidraw --><metadata/><defs><style class="style-fonts">
      </style></defs><g stroke-linecap="round" transform="translate(0 0) rotate(0 414.6666564941406 263.3333435058594)"><path d="M30.47 251.74 C30.47 251.74, 30.47 251.74, 30.47 251.74 M30.47 251.74 C30.47 251.74, 30.47 251.74, 30.47 251.74 M30.74 275.82 C44.83 259.61, 58.93 243.4, 89.79 207.9 M30.74 275.82 C45.98 258.29, 61.22 240.76, 89.79 207.9 M41.5 287.83 C77.92 245.94, 114.33 204.06, 137.29 177.64 M41.5 287.83 C79.34 244.3, 117.18 200.77, 137.29 177.64 M54.24 297.57 C105.81 238.24, 157.39 178.91, 184.79 147.39 M54.24 297.57 C93.9 251.94, 133.56 206.32, 184.79 147.39 M67.62 306.56 C120.04 246.26, 172.46 185.95, 232.29 117.13 M67.62 306.56 C130.86 233.81, 194.1 161.07, 232.29 117.13 M81.01 315.55 C135.87 252.43, 190.74 189.32, 279.8 86.87 M81.01 315.55 C132.97 255.77, 184.94 195.99, 279.8 86.87 M95.05 323.78 C182.33 223.38, 269.61 122.98, 327.3 56.61 M95.05 323.78 C152.44 257.77, 209.82 191.76, 327.3 56.61 M108.44 332.77 C186.8 242.63, 265.15 152.49, 371.52 30.13 M108.44 332.77 C186.58 242.88, 264.71 153, 371.52 30.13 M122.48 341 C230.66 216.56, 338.84 92.12, 403.28 17.99 M122.48 341 C198.68 253.34, 274.88 165.69, 403.28 17.99 M135.87 349.99 C203.79 271.86, 271.7 193.74, 425.19 17.16 M135.87 349.99 C220.9 252.17, 305.94 154.35, 425.19 17.16 M149.26 358.98 C262.57 228.63, 375.88 98.27, 441.86 22.38 M149.26 358.98 C211.08 287.86, 272.91 216.74, 441.86 22.38 M163.3 367.21 C256.95 259.48, 350.61 151.74, 457.22 29.1 M163.3 367.21 C266.92 248.01, 370.54 128.81, 457.22 29.1 M176.69 376.2 C273.95 264.31, 371.21 152.43, 471.26 37.33 M176.69 376.2 C291.1 244.58, 405.51 112.97, 471.26 37.33 M190.73 384.43 C290.68 269.45, 390.63 154.47, 485.3 45.57 M190.73 384.43 C276.34 285.95, 361.94 187.48, 485.3 45.57 M204.12 393.42 C313.41 267.7, 422.7 141.97, 499.35 53.8 M204.12 393.42 C319.68 260.48, 435.24 127.55, 499.35 53.8 M218.17 401.65 C319.6 284.97, 421.03 168.28, 512.74 62.79 M218.17 401.65 C319.17 285.45, 420.18 169.26, 512.74 62.79 M231.55 410.64 C341.16 284.55, 450.77 158.45, 526.78 71.02 M231.55 410.64 C342.65 282.84, 453.74 155.04, 526.78 71.02 M245.6 418.87 C345.49 303.95, 445.39 189.04, 540.17 80.01 M245.6 418.87 C322.62 330.27, 399.64 241.67, 540.17 80.01 M258.98 427.86 C319.58 358.15, 380.17 288.45, 554.21 88.24 M258.98 427.86 C367.09 303.5, 475.19 179.14, 554.21 88.24 M273.03 436.09 C386.99 304.99, 500.95 173.9, 567.6 97.23 M273.03 436.09 C336.51 363.06, 400 290.03, 567.6 97.23 M286.41 445.08 C360.56 359.78, 434.71 274.49, 580.98 106.21 M286.41 445.08 C389.9 326.03, 493.39 206.98, 580.98 106.21 M299.8 454.07 C390.91 349.26, 482.02 244.45, 595.03 114.45 M299.8 454.07 C385.85 355.08, 471.89 256.1, 595.03 114.45 M313.85 462.3 C401.66 361.28, 489.47 260.27, 608.42 123.43 M313.85 462.3 C428.51 330.4, 543.17 198.49, 608.42 123.43 M327.23 471.29 C440.35 341.16, 553.46 211.04, 622.46 131.67 M327.23 471.29 C443.22 337.86, 559.2 204.44, 622.46 131.67 M341.28 479.52 C411.87 398.31, 482.47 317.1, 635.85 140.65 M341.28 479.52 C431.02 376.29, 520.75 273.05, 635.85 140.65 M355.32 487.75 C427.96 404.19, 500.6 320.62, 649.23 149.64 M355.32 487.75 C455.4 372.62, 555.49 257.48, 649.23 149.64 M369.36 495.98 C480.88 367.7, 592.4 239.41, 663.28 157.87 M369.36 495.98 C483.81 364.33, 598.25 232.68, 663.28 157.87 M384.06 503.46 C499.66 370.48, 615.27 237.49, 676.67 166.86 M384.06 503.46 C493.03 378.11, 601.99 252.77, 676.67 166.86 M400.73 508.68 C495.7 399.42, 590.68 290.17, 690.05 175.85 M400.73 508.68 C488.25 408, 575.77 307.32, 690.05 175.85 M420.68 510.12 C499.81 419.09, 578.94 328.06, 704.1 184.08 M420.68 510.12 C489.73 430.68, 558.78 351.25, 704.1 184.08 M448.5 502.5 C530.5 408.17, 612.5 313.84, 717.48 193.07 M448.5 502.5 C548.09 387.93, 647.68 273.37, 717.48 193.07 M490.75 478.28 C541.22 420.23, 591.68 362.18, 731.53 201.3 M490.75 478.28 C569.39 387.83, 648.02 297.37, 731.53 201.3 M536.94 449.53 C585.96 393.14, 634.98 336.76, 744.91 210.29 M536.94 449.53 C596.44 381.09, 655.94 312.65, 744.91 210.29 M583.79 420.03 C628.14 369.01, 672.49 317.99, 758.3 219.28 M583.79 420.03 C638.02 357.65, 692.25 295.26, 758.3 219.28 M631.29 389.77 C667.11 348.58, 702.92 307.38, 771.69 228.27 M631.29 389.77 C660.86 355.76, 690.43 321.75, 771.69 228.27 M678.14 360.27 C714.12 318.88, 750.11 277.48, 784.42 238.01 M678.14 360.27 C710.33 323.24, 742.52 286.21, 784.42 238.01 M725.64 330.01 C740.18 313.29, 754.71 296.57, 796.5 248.5 M725.64 330.01 C744.89 307.87, 764.13 285.74, 796.5 248.5 M773.8 299 C784.25 286.98, 794.71 274.95, 803.98 264.28 M773.8 299 C783.66 287.65, 793.53 276.31, 803.98 264.28" stroke="#ffc9c9" stroke-width="2" fill="none"/><path d="M518.75 66 C595.84 115.2, 672.93 164.4, 725.58 198 M518.75 66 C571.29 99.53, 623.83 133.06, 725.58 198 M725.58 198 C829.33 264, 829.33 264, 725.58 330 M725.58 198 C829.33 264, 829.33 264, 725.58 330 M725.58 330 C676.33 361.11, 627.08 392.23, 518.75 460.67 M725.58 330 C678.23 359.91, 630.88 389.83, 518.75 460.67 M518.75 460.67 C415 526.67, 415 526.67, 311.25 460.67 M518.75 460.67 C415 526.67, 415 526.67, 311.25 460.67 M311.25 460.67 C244.44 418.59, 177.63 376.52, 103.75 330 M311.25 460.67 C261.3 429.21, 211.35 397.76, 103.75 330 M103.75 330 C0 264, 0 264, 103.75 198 M103.75 330 C0 264, 0 264, 103.75 198 M103.75 198 C171.13 155.14, 238.51 112.27, 311.25 66 M103.75 198 C149.92 168.63, 196.1 139.25, 311.25 66 M311.25 66 C415 0, 415 0, 518.75 66 M311.25 66 C415 0, 415 0, 518.75 66" stroke="#e03131" stroke-width="4" fill="none"/></g><g stroke-linecap="round" transform="translate(276.66665701171877 125.33334401171874) rotate(270 138 138)"><path d="M276 138 C276 141.8, 275.84 145.61, 275.53 149.4 C275.21 153.18, 274.74 156.97, 274.12 160.71 C273.49 164.46, 272.71 168.19, 271.78 171.88 C270.84 175.56, 269.76 179.22, 268.52 182.81 C267.29 186.4, 265.9 189.96, 264.38 193.43 C262.85 196.91, 261.18 200.34, 259.37 203.68 C257.56 207.02, 255.61 210.3, 253.53 213.48 C251.45 216.66, 249.23 219.76, 246.9 222.76 C244.57 225.76, 242.1 228.67, 239.53 231.46 C236.96 234.26, 234.26 236.96, 231.46 239.53 C228.67 242.1, 225.76 244.57, 222.76 246.9 C219.76 249.23, 216.66 251.45, 213.48 253.53 C210.3 255.61, 207.02 257.56, 203.68 259.37 C200.34 261.18, 196.91 262.85, 193.43 264.38 C189.96 265.9, 186.4 267.29, 182.81 268.52 C179.22 269.76, 175.56 270.84, 171.88 271.78 C168.19 272.71, 164.46 273.49, 160.71 274.12 C156.97 274.74, 153.18 275.21, 149.4 275.53 C145.61 275.84, 141.8 276, 138 276 C134.2 276, 130.39 275.84, 126.6 275.53 C122.82 275.21, 119.03 274.74, 115.29 274.12 C111.54 273.49, 107.81 272.71, 104.12 271.78 C100.44 270.84, 96.78 269.76, 93.19 268.52 C89.6 267.29, 86.04 265.9, 82.57 264.38 C79.09 262.85, 75.66 261.18, 72.32 259.37 C68.98 257.56, 65.7 255.61, 62.52 253.53 C59.34 251.45, 56.24 249.23, 53.24 246.9 C50.24 244.57, 47.33 242.1, 44.54 239.53 C41.74 236.96, 39.04 234.26, 36.47 231.46 C33.9 228.67, 31.43 225.76, 29.1 222.76 C26.77 219.76, 24.55 216.66, 22.47 213.48 C20.39 210.3, 18.44 207.02, 16.63 203.68 C14.82 200.34, 13.15 196.91, 11.62 193.43 C10.1 189.96, 8.71 186.4, 7.48 182.81 C6.24 179.22, 5.16 175.56, 4.22 171.88 C3.29 168.19, 2.51 164.46, 1.88 160.71 C1.26 156.97, 0.79 153.18, 0.47 149.4 C0.16 145.61, 0 141.8, 0 138 C0 134.2, 0.16 130.39, 0.47 126.6 C0.79 122.82, 1.26 119.03, 1.88 115.29 C2.51 111.54, 3.29 107.81, 4.22 104.12 C5.16 100.44, 6.24 96.78, 7.48 93.19 C8.71 89.6, 10.1 86.04, 11.62 82.57 C13.15 79.09, 14.82 75.66, 16.63 72.32 C18.44 68.98, 20.39 65.7, 22.47 62.52 C24.55 59.34, 26.77 56.24, 29.1 53.24 C31.43 50.24, 33.9 47.33, 36.47 44.54 C39.04 41.74, 41.74 39.04, 44.54 36.47 C47.33 33.9, 50.24 31.43, 53.24 29.1 C56.24 26.77, 59.34 24.55, 62.52 22.47 C65.7 20.39, 68.98 18.44, 72.32 16.63 C75.66 14.82, 79.09 13.15, 82.57 11.62 C86.04 10.1, 89.6 8.71, 93.19 7.48 C96.78 6.24, 100.44 5.16, 104.12 4.22 C107.81 3.29, 111.54 2.51, 115.29 1.88 C119.03 1.26, 122.82 0.79, 126.6 0.47 C130.39 0.16, 134.2 0, 138 0 C141.8 0, 145.61 0.16, 149.4 0.47 C153.18 0.79, 156.97 1.26, 160.71 1.88 C164.46 2.51, 168.19 3.29, 171.88 4.22 C175.56 5.16, 179.22 6.24, 182.81 7.48 C186.4 8.71, 189.96 10.1, 193.43 11.62 C196.91 13.15, 200.34 14.82, 203.68 16.63 C207.02 18.44, 210.3 20.39, 213.48 22.47 C216.66 24.55, 219.76 26.77, 222.76 29.1 C225.76 31.43, 228.67 33.9, 231.46 36.47 C234.26 39.04, 236.96 41.74, 239.53 44.54 C242.1 47.33, 244.57 50.24, 246.9 53.24 C249.23 56.24, 251.45 59.34, 253.53 62.52 C255.61 65.7, 257.56 68.98, 259.37 72.32 C261.18 75.66, 262.85 79.09, 264.38 82.57 C265.9 86.04, 267.29 89.6, 268.52 93.19 C269.76 96.78, 270.84 100.44, 271.78 104.12 C272.71 107.81, 273.49 111.54, 274.12 115.29 C274.74 119.03, 275.21 122.82, 275.53 126.6 C275.84 130.39, 276 134.2, 276 138" stroke="none" stroke-width="0" fill="#ffffff"/><path d="M276 138 C276 141.8, 275.84 145.61, 275.53 149.4 C275.21 153.18, 274.74 156.97, 274.12 160.71 C273.49 164.46, 272.71 168.19, 271.78 171.88 C270.84 175.56, 269.76 179.22, 268.52 182.81 C267.29 186.4, 265.9 189.96, 264.38 193.43 C262.85 196.91, 261.18 200.34, 259.37 203.68 C257.56 207.02, 255.61 210.3, 253.53 213.48 C251.45 216.66, 249.23 219.76, 246.9 222.76 C244.57 225.76, 242.1 228.67, 239.53 231.46 C236.96 234.26, 234.26 236.96, 231.46 239.53 C228.67 242.1, 225.76 244.57, 222.76 246.9 C219.76 249.23, 216.66 251.45, 213.48 253.53 C210.3 255.61, 207.02 257.56, 203.68 259.37 C200.34 261.18, 196.91 262.85, 193.43 264.38 C189.96 265.9, 186.4 267.29, 182.81 268.52 C179.22 269.76, 175.56 270.84, 171.88 271.78 C168.19 272.71, 164.46 273.49, 160.71 274.12 C156.97 274.74, 153.18 275.21, 149.4 275.53 C145.61 275.84, 141.8 276, 138 276 C134.2 276, 130.39 275.84, 126.6 275.53 C122.82 275.21, 119.03 274.74, 115.29 274.12 C111.54 273.49, 107.81 272.71, 104.12 271.78 C100.44 270.84, 96.78 269.76, 93.19 268.52 C89.6 267.29, 86.04 265.9, 82.57 264.38 C79.09 262.85, 75.66 261.18, 72.32 259.37 C68.98 257.56, 65.7 255.61, 62.52 253.53 C59.34 251.45, 56.24 249.23, 53.24 246.9 C50.24 244.57, 47.33 242.1, 44.54 239.53 C41.74 236.96, 39.04 234.26, 36.47 231.46 C33.9 228.67, 31.43 225.76, 29.1 222.76 C26.77 219.76, 24.55 216.66, 22.47 213.48 C20.39 210.3, 18.44 207.02, 16.63 203.68 C14.82 200.34, 13.15 196.91, 11.62 193.43 C10.1 189.96, 8.71 186.4, 7.48 182.81 C6.24 179.22, 5.16 175.56, 4.22 171.88 C3.29 168.19, 2.51 164.46, 1.88 160.71 C1.26 156.97, 0.79 153.18, 0.47 149.4 C0.16 145.61, 0 141.8, 0 138 C0 134.2, 0.16 130.39, 0.47 126.6 C0.79 122.82, 1.26 119.03, 1.88 115.29 C2.51 111.54, 3.29 107.81, 4.22 104.12 C5.16 100.44, 6.24 96.78, 7.48 93.19 C8.71 89.6, 10.1 86.04, 11.62 82.57 C13.15 79.09, 14.82 75.66, 16.63 72.32 C18.44 68.98, 20.39 65.7, 22.47 62.52 C24.55 59.34, 26.77 56.24, 29.1 53.24 C31.43 50.24, 33.9 47.33, 36.47 44.54 C39.04 41.74, 41.74 39.04, 44.54 36.47 C47.33 33.9, 50.24 31.43, 53.24 29.1 C56.24 26.77, 59.34 24.55, 62.52 22.47 C65.7 20.39, 68.98 18.44, 72.32 16.63 C75.66 14.82, 79.09 13.15, 82.57 11.62 C86.04 10.1, 89.6 8.71, 93.19 7.48 C96.78 6.24, 100.44 5.16, 104.12 4.22 C107.81 3.29, 111.54 2.51, 115.29 1.88 C119.03 1.26, 122.82 0.79, 126.6 0.47 C130.39 0.16, 134.2 0, 138 0 C141.8 0, 145.61 0.16, 149.4 0.47 C153.18 0.79, 156.97 1.26, 160.71 1.88 C164.46 2.51, 168.19 3.29, 171.88 4.22 C175.56 5.16, 179.22 6.24, 182.81 7.48 C186.4 8.71, 189.96 10.1, 193.43 11.62 C196.91 13.15, 200.34 14.82, 203.68 16.63 C207.02 18.44, 210.3 20.39, 213.48 22.47 C216.66 24.55, 219.76 26.77, 222.76 29.1 C225.76 31.43, 228.67 33.9, 231.46 36.47 C234.26 39.04, 236.96 41.74, 239.53 44.54 C242.1 47.33, 244.57 50.24, 246.9 53.24 C249.23 56.24, 251.45 59.34, 253.53 62.52 C255.61 65.7, 257.56 68.98, 259.37 72.32 C261.18 75.66, 262.85 79.09, 264.38 82.57 C265.9 86.04, 267.29 89.6, 268.52 93.19 C269.76 96.78, 270.84 100.44, 271.78 104.12 C272.71 107.81, 273.49 111.54, 274.12 115.29 C274.74 119.03, 275.21 122.82, 275.53 126.6 C275.84 130.39, 276 134.2, 276 138" stroke="transparent" stroke-width="4" fill="none"/></g><g stroke-linecap="round" transform="translate(276.66665701171877 125.33334403515619) rotate(270 138 138)"><path d="M36.26 44.77 C36.26 44.77, 36.26 44.77, 36.26 44.77 M36.26 44.77 C36.26 44.77, 36.26 44.77, 36.26 44.77 M3.73 106.59 C23.57 83.77, 43.41 60.94, 87.05 10.74 M3.73 106.59 C22.8 84.65, 41.87 62.71, 87.05 10.74 M0.71 134.45 C42.39 86.5, 84.07 38.55, 115.52 2.37 M0.71 134.45 C43.16 85.62, 85.6 36.79, 115.52 2.37 M1.63 157.77 C40.13 113.49, 78.63 69.21, 138.75 0.04 M1.63 157.77 C32.06 122.77, 62.49 87.77, 138.75 0.04 M6.49 176.57 C46.58 130.46, 86.66 84.35, 158.04 2.23 M6.49 176.57 C57.18 118.27, 107.86 59.96, 158.04 2.23 M12.01 194.62 C61.79 137.35, 111.57 80.08, 176.02 5.94 M12.01 194.62 C54.19 146.09, 96.37 97.57, 176.02 5.94 M20.15 209.64 C88.11 131.46, 156.07 53.28, 192.69 11.15 M20.15 209.64 C54.74 169.84, 89.34 130.04, 192.69 11.15 M29.6 223.16 C88.09 155.87, 146.59 88.58, 207.39 18.63 M29.6 223.16 C99.75 142.45, 169.91 61.75, 207.39 18.63 M40.36 235.16 C110.77 154.17, 181.17 73.18, 220.78 27.62 M40.36 235.16 C103.3 162.77, 166.23 90.37, 220.78 27.62 M52.44 245.66 C113.35 175.59, 174.25 105.53, 232.85 38.11 M52.44 245.66 C90.53 201.83, 128.63 158.01, 232.85 38.11 M65.17 255.4 C118.96 193.52, 172.75 131.65, 244.27 49.37 M65.17 255.4 C105.92 208.53, 146.67 161.65, 244.27 49.37 M79.87 262.88 C143.76 189.38, 207.66 115.88, 253.72 62.88 M79.87 262.88 C132.22 202.66, 184.57 142.44, 253.72 62.88 M95.22 269.6 C141.68 216.17, 188.13 162.73, 261.86 77.91 M95.22 269.6 C137.2 221.32, 179.17 173.04, 261.86 77.91 M112.55 274.06 C146.22 235.32, 179.9 196.58, 269.35 93.69 M112.55 274.06 C171.48 206.27, 230.41 138.48, 269.35 93.69 M131.84 276.26 C172.65 229.31, 213.46 182.36, 273.55 113.24 M131.84 276.26 C174.98 226.63, 218.12 177.01, 273.55 113.24 M153.76 275.43 C194.64 228.41, 235.52 181.38, 276.44 134.3 M153.76 275.43 C198.4 224.07, 243.05 172.72, 276.44 134.3 M179.61 270.08 C217.49 226.5, 255.38 182.92, 274.74 160.65 M179.61 270.08 C201.94 244.39, 224.28 218.69, 274.74 160.65 M217.27 251.15 C231.97 234.23, 246.67 217.32, 261.23 200.58 M217.27 251.15 C230.95 235.41, 244.62 219.68, 261.23 200.58" stroke="#ffec99" stroke-width="2" fill="none"/><path d="M276 138 C276 141.8, 275.84 145.61, 275.53 149.4 C275.21 153.18, 274.74 156.97, 274.12 160.71 C273.49 164.46, 272.71 168.19, 271.78 171.88 C270.84 175.56, 269.76 179.22, 268.52 182.81 C267.29 186.4, 265.9 189.96, 264.38 193.43 C262.85 196.91, 261.18 200.34, 259.37 203.68 C257.56 207.02, 255.61 210.3, 253.53 213.48 C251.45 216.66, 249.23 219.76, 246.9 222.76 C244.57 225.76, 242.1 228.67, 239.53 231.46 C236.96 234.26, 234.26 236.96, 231.46 239.53 C228.67 242.1, 225.76 244.57, 222.76 246.9 C219.76 249.23, 216.66 251.45, 213.48 253.53 C210.3 255.61, 207.02 257.56, 203.68 259.37 C200.34 261.18, 196.91 262.85, 193.43 264.38 C189.96 265.9, 186.4 267.29, 182.81 268.52 C179.22 269.76, 175.56 270.84, 171.88 271.78 C168.19 272.71, 164.46 273.49, 160.71 274.12 C156.97 274.74, 153.18 275.21, 149.4 275.53 C145.61 275.84, 141.8 276, 138 276 C134.2 276, 130.39 275.84, 126.6 275.53 C122.82 275.21, 119.03 274.74, 115.29 274.12 C111.54 273.49, 107.81 272.71, 104.12 271.78 C100.44 270.84, 96.78 269.76, 93.19 268.52 C89.6 267.29, 86.04 265.9, 82.57 264.38 C79.09 262.85, 75.66 261.18, 72.32 259.37 C68.98 257.56, 65.7 255.61, 62.52 253.53 C59.34 251.45, 56.24 249.23, 53.24 246.9 C50.24 244.57, 47.33 242.1, 44.54 239.53 C41.74 236.96, 39.04 234.26, 36.47 231.46 C33.9 228.67, 31.43 225.76, 29.1 222.76 C26.77 219.76, 24.55 216.66, 22.47 213.48 C20.39 210.3, 18.44 207.02, 16.63 203.68 C14.82 200.34, 13.15 196.91, 11.62 193.43 C10.1 189.96, 8.71 186.4, 7.48 182.81 C6.24 179.22, 5.16 175.56, 4.22 171.88 C3.29 168.19, 2.51 164.46, 1.88 160.71 C1.26 156.97, 0.79 153.18, 0.47 149.4 C0.16 145.61, 0 141.8, 0 138 C0 134.2, 0.16 130.39, 0.47 126.6 C0.79 122.82, 1.26 119.03, 1.88 115.29 C2.51 111.54, 3.29 107.81, 4.22 104.12 C5.16 100.44, 6.24 96.78, 7.48 93.19 C8.71 89.6, 10.1 86.04, 11.62 82.57 C13.15 79.09, 14.82 75.66, 16.63 72.32 C18.44 68.98, 20.39 65.7, 22.47 62.52 C24.55 59.34, 26.77 56.24, 29.1 53.24 C31.43 50.24, 33.9 47.33, 36.47 44.54 C39.04 41.74, 41.74 39.04, 44.54 36.47 C47.33 33.9, 50.24 31.43, 53.24 29.1 C56.24 26.77, 59.34 24.55, 62.52 22.47 C65.7 20.39, 68.98 18.44, 72.32 16.63 C75.66 14.82, 79.09 13.15, 82.57 11.62 C86.04 10.1, 89.6 8.71, 93.19 7.48 C96.78 6.24, 100.44 5.16, 104.12 4.22 C107.81 3.29, 111.54 2.51, 115.29 1.88 C119.03 1.26, 122.82 0.79, 126.6 0.47 C130.39 0.16, 134.2 0, 138 0 C141.8 0, 145.61 0.16, 149.4 0.47 C153.18 0.79, 156.97 1.26, 160.71 1.88 C164.46 2.51, 168.19 3.29, 171.88 4.22 C175.56 5.16, 179.22 6.24, 182.81 7.48 C186.4 8.71, 189.96 10.1, 193.43 11.62 C196.91 13.15, 200.34 14.82, 203.68 16.63 C207.02 18.44, 210.3 20.39, 213.48 22.47 C216.66 24.55, 219.76 26.77, 222.76 29.1 C225.76 31.43, 228.67 33.9, 231.46 36.47 C234.26 39.04, 236.96 41.74, 239.53 44.54 C242.1 47.33, 244.57 50.24, 246.9 53.24 C249.23 56.24, 251.45 59.34, 253.53 62.52 C255.61 65.7, 257.56 68.98, 259.37 72.32 C261.18 75.66, 262.85 79.09, 264.38 82.57 C265.9 86.04, 267.29 89.6, 268.52 93.19 C269.76 96.78, 270.84 100.44, 271.78 104.12 C272.71 107.81, 273.49 111.54, 274.12 115.29 C274.74 119.03, 275.21 122.82, 275.53 126.6 C275.84 130.39, 276 134.2, 276 138" stroke="#e03131" stroke-width="4" fill="none"/></g></svg>