<!--?xml version="1.0" standalone="no"?-->
<svg id="code_python_:r3o:_svg" width="380.07110595703125" height="357.08074951171875" xmlns="http://www.w3.org/2000/svg" viewBox="67.72758483886719,77.05770874023438,380.07110595703125,357.08074951171875">
<g transform="translate(250 250)">
<line x1="0" y1="0" x2="0" y2="0" style="stroke: black; stroke-width: 1;"></line>
<line x1="0" y1="0" x2="0" y2="0" style="stroke: black; stroke-width: 1;"></line>
<line x1="0" y1="0" x2="0" y2="0" style="stroke: black; stroke-width: 1;"></line>
<line x1="0" y1="0" x2="0" y2="0" style="stroke: magenta; stroke-width: 1;"></line>
<line x1="0" y1="0" x2="0.8660254037844387" y2="-0.49999999999999994" style="stroke: magenta; stroke-width: 1;"></line>
<line x1="0.8660254037844387" y1="-0.49999999999999994" x2="1.8660254037844388" y2="-2.232050807568877" style="stroke: magenta; stroke-width: 1;"></line>
<line x1="1.8660254037844388" y1="-2.232050807568877" x2="1.866025403784439" y2="-5.232050807568877" style="stroke: magenta; stroke-width: 1;"></line>
<line x1="1.866025403784439" y1="-5.232050807568877" x2="-0.13397459621556007" y2="-8.696152422706632" style="stroke: magenta; stroke-width: 1;"></line>
<line x1="-0.13397459621556007" y1="-8.696152422706632" x2="-4.4641016151377535" y2="-11.196152422706632" style="stroke: magenta; stroke-width: 1;"></line>
<line x1="-4.4641016151377535" y1="-11.196152422706632" x2="-10.464101615137753" y2="-11.196152422706632" style="stroke: magenta; stroke-width: 1;"></line>
<line x1="-10.464101615137753" y1="-11.196152422706632" x2="-16.526279441628823" y2="-7.696152422706631" style="stroke: magenta; stroke-width: 1;"></line>
<line x1="-16.526279441628823" y1="-7.696152422706631" x2="-20.526279441628827" y2="-0.7679491924311241" style="stroke: magenta; stroke-width: 1;"></line>
<line x1="-20.526279441628827" y1="-0.7679491924311241" x2="-20.526279441628827" y2="8.232050807568875" style="stroke: magenta; stroke-width: 1;"></line>
<line x1="-20.526279441628827" y1="8.232050807568875" x2="-15.526279441628827" y2="16.89230484541326" style="stroke: magenta; stroke-width: 1;"></line>
<line x1="-15.526279441628827" y1="16.89230484541326" x2="-6.0000000000000036" y2="22.392304845413264" style="stroke: magenta; stroke-width: 1;"></line>
<line x1="-6.0000000000000036" y1="22.392304845413264" x2="5.9999999999999964" y2="22.392304845413268" style="stroke: magenta; stroke-width: 1;"></line>
<line x1="5.9999999999999964" y1="22.392304845413268" x2="17.258330249197698" y2="15.892304845413268" style="stroke: magenta; stroke-width: 1;"></line>
<line x1="17.258330249197698" y1="15.892304845413268" x2="24.258330249197694" y2="3.767949192431125" style="stroke: magenta; stroke-width: 1;"></line>
<line x1="24.258330249197694" y1="3.767949192431125" x2="24.258330249197698" y2="-11.232050807568875" style="stroke: magenta; stroke-width: 1;"></line>
<line x1="24.258330249197698" y1="-11.232050807568875" x2="16.258330249197712" y2="-25.088457268119903" style="stroke: magenta; stroke-width: 1;"></line>
<line x1="16.258330249197712" y1="-25.088457268119903" x2="1.5358983848622518" y2="-33.588457268119896" style="stroke: magenta; stroke-width: 1;"></line>
<line x1="1.5358983848622518" y1="-33.588457268119896" x2="-16.46410161513775" y2="-33.5884572681199" style="stroke: magenta; stroke-width: 1;"></line>
<line x1="-16.46410161513775" y1="-33.5884572681199" x2="-32.918584287042094" y2="-24.088457268119917" style="stroke: magenta; stroke-width: 1;"></line>
<line x1="-32.918584287042094" y1="-24.088457268119917" x2="-42.918584287042094" y2="-6.767949192431143" style="stroke: magenta; stroke-width: 1;"></line>
<line x1="-42.918584287042094" y1="-6.767949192431143" x2="-42.9185842870421" y2="14.232050807568857" style="stroke: magenta; stroke-width: 1;"></line>
<line x1="-42.9185842870421" y1="14.232050807568857" x2="-31.918584287042123" y2="33.284609690826514" style="stroke: magenta; stroke-width: 1;"></line>
<line x1="-31.918584287042123" y1="33.284609690826514" x2="-12.000000000000032" y2="44.784609690826514" style="stroke: magenta; stroke-width: 1;"></line>
<line x1="-12.000000000000032" y1="44.784609690826514" x2="11.999999999999968" y2="44.78460969082653" style="stroke: magenta; stroke-width: 1;"></line>
<line x1="11.999999999999968" y1="44.78460969082653" x2="33.65063509461095" y2="32.28460969082655" style="stroke: magenta; stroke-width: 1;"></line>
<line x1="33.65063509461095" y1="32.28460969082655" x2="46.65063509461095" y2="9.767949192431143" style="stroke: magenta; stroke-width: 1;"></line>
<line x1="46.65063509461095" y1="9.767949192431143" x2="46.65063509461096" y2="-17.232050807568857" style="stroke: magenta; stroke-width: 1;"></line>
<line x1="46.65063509461096" y1="-17.232050807568857" x2="32.65063509461095" y2="-41.48076211353313" style="stroke: magenta; stroke-width: 1;"></line>
<line x1="32.65063509461095" y1="-41.48076211353313" x2="7.535898384862229" y2="-55.98076211353313" style="stroke: magenta; stroke-width: 1;"></line>
<line x1="7.535898384862229" y1="-55.98076211353313" x2="-22.46410161513777" y2="-55.98076211353315" style="stroke: magenta; stroke-width: 1;"></line>
<line x1="-22.46410161513777" y1="-55.98076211353315" x2="-49.31088913245539" y2="-40.48076211353319" style="stroke: magenta; stroke-width: 1;"></line>
<line x1="-49.31088913245539" y1="-40.48076211353319" x2="-65.31088913245543" y2="-12.767949192431182" style="stroke: magenta; stroke-width: 1;"></line>
<line x1="-65.31088913245543" y1="-12.767949192431182" x2="-65.31088913245539" y2="20.232050807568818" style="stroke: magenta; stroke-width: 1;"></line>
<line x1="-65.31088913245539" y1="20.232050807568818" x2="-48.31088913245537" y2="49.67691453623972" style="stroke: magenta; stroke-width: 1;"></line>
<line x1="-48.31088913245537" y1="49.67691453623972" x2="-18.00000000000002" y2="67.17691453623972" style="stroke: magenta; stroke-width: 1;"></line>
<line x1="-18.00000000000002" y1="67.17691453623972" x2="17.99999999999998" y2="67.17691453623975" style="stroke: magenta; stroke-width: 1;"></line>
<line x1="17.99999999999998" y1="67.17691453623975" x2="50.04293994002423" y2="48.67691453623979" style="stroke: magenta; stroke-width: 1;"></line>
<line x1="50.04293994002423" y1="48.67691453623979" x2="69.0429399400243" y2="15.76794919243116" style="stroke: magenta; stroke-width: 1;"></line>
<line x1="69.0429399400243" y1="15.76794919243116" x2="69.04293994002425" y2="-23.23205080756884" style="stroke: magenta; stroke-width: 1;"></line>
<line x1="69.04293994002425" y1="-23.23205080756884" x2="49.04293994002424" y2="-57.87306695894638" style="stroke: magenta; stroke-width: 1;"></line>
<line x1="49.04293994002424" y1="-57.87306695894638" x2="13.535898384862264" y2="-78.3730669589464" style="stroke: magenta; stroke-width: 1;"></line>
<line x1="13.535898384862264" y1="-78.3730669589464" x2="-28.464101615137736" y2="-78.37306695894644" style="stroke: magenta; stroke-width: 1;"></line>
<line x1="-28.464101615137736" y1="-78.37306695894644" x2="-65.70319397786864" y2="-56.873066958946495" style="stroke: magenta; stroke-width: 1;"></line>
<line x1="-65.70319397786864" y1="-56.873066958946495" x2="-87.70319397786872" y2="-18.76794919243124" style="stroke: magenta; stroke-width: 1;"></line>
<line x1="-87.70319397786872" y1="-18.76794919243124" x2="-87.70319397786868" y2="26.23205080756876" style="stroke: magenta; stroke-width: 1;"></line>
<line x1="-87.70319397786868" y1="26.23205080756876" x2="-64.70319397786866" y2="66.06921938165293" style="stroke: magenta; stroke-width: 1;"></line>
<line x1="-64.70319397786866" y1="66.06921938165293" x2="-24.000000000000057" y2="89.56921938165294" style="stroke: magenta; stroke-width: 1;"></line>
<line x1="-24.000000000000057" y1="89.56921938165294" x2="23.999999999999943" y2="89.56921938165299" style="stroke: magenta; stroke-width: 1;"></line>
<line x1="23.999999999999943" y1="89.56921938165299" x2="66.43524478543748" y2="65.06921938165306" style="stroke: magenta; stroke-width: 1;"></line>
<line x1="66.43524478543748" y1="65.06921938165306" x2="91.43524478543758" y2="21.767949192431175" style="stroke: magenta; stroke-width: 1;"></line>
<line x1="91.43524478543758" y1="21.767949192431175" x2="91.43524478543753" y2="-29.232050807568825" style="stroke: magenta; stroke-width: 1;"></line>
<line x1="91.43524478543753" y1="-29.232050807568825" x2="65.43524478543753" y2="-74.26537180435963" style="stroke: magenta; stroke-width: 1;"></line>
<line x1="65.43524478543753" y1="-74.26537180435963" x2="19.5358983848623" y2="-100.76537180435966" style="stroke: magenta; stroke-width: 1;"></line>
<line x1="19.5358983848623" y1="-100.76537180435966" x2="-34.4641016151377" y2="-100.76537180435972" style="stroke: magenta; stroke-width: 1;"></line>
<line x1="-34.4641016151377" y1="-100.76537180435972" x2="-82.09549882328187" y2="-73.2653718043598" style="stroke: magenta; stroke-width: 1;"></line>
<line x1="-82.09549882328187" y1="-73.2653718043598" x2="-110.09549882328182" y2="-24.767949192431203" style="stroke: magenta; stroke-width: 1;"></line>
<line x1="-110.09549882328182" y1="-24.767949192431203" x2="-110.09549882328179" y2="32.2320508075688" style="stroke: magenta; stroke-width: 1;"></line>
<line x1="-110.09549882328179" y1="32.2320508075688" x2="-81.09549882328179" y2="82.46152422706623" style="stroke: magenta; stroke-width: 1;"></line>
<line x1="-81.09549882328179" y1="82.46152422706623" x2="-29.999999999999922" y2="111.96152422706626" style="stroke: magenta; stroke-width: 1;"></line>
<line x1="-29.999999999999922" y1="111.96152422706626" x2="30.000000000000078" y2="111.96152422706633" style="stroke: magenta; stroke-width: 1;"></line>
<line x1="30.000000000000078" y1="111.96152422706633" x2="82.8275496308509" y2="81.46152422706643" style="stroke: magenta; stroke-width: 1;"></line>
<line x1="82.8275496308509" y1="81.46152422706643" x2="113.82754963085102" y2="27.767949192431317" style="stroke: magenta; stroke-width: 1;"></line>
<line x1="113.82754963085102" y1="27.767949192431317" x2="113.827549630851" y2="-35.23205080756868" style="stroke: magenta; stroke-width: 1;"></line>
<line x1="113.827549630851" y1="-35.23205080756868" x2="81.8275496308512" y2="-90.65767664977287" style="stroke: magenta; stroke-width: 1;"></line>
<line x1="81.8275496308512" y1="-90.65767664977287" x2="25.535898384862705" y2="-123.15767664977291" style="stroke: magenta; stroke-width: 1;"></line>
<line x1="25.535898384862705" y1="-123.15767664977291" x2="-40.464101615137295" y2="-123.15767664977277" style="stroke: magenta; stroke-width: 1;"></line>
<line x1="-40.464101615137295" y1="-123.15767664977277" x2="-98.48780366869474" y2="-89.65767664977288" style="stroke: magenta; stroke-width: 1;"></line>
<line x1="-98.48780366869474" y1="-89.65767664977288" x2="-132.48780366869468" y2="-30.76794919243102" style="stroke: magenta; stroke-width: 1;"></line>
<line x1="-132.48780366869468" y1="-30.76794919243102" x2="-132.4878036686949" y2="38.23205080756898" style="stroke: magenta; stroke-width: 1;"></line>
<line x1="-132.4878036686949" y1="38.23205080756898" x2="-97.48780366869492" y2="98.8538290724797" style="stroke: magenta; stroke-width: 1;"></line>
<line x1="-97.48780366869492" y1="98.8538290724797" x2="-35.99999999999968" y2="134.35382907247953" style="stroke: magenta; stroke-width: 1;"></line>
<line x1="-35.99999999999968" y1="134.35382907247953" x2="36.00000000000032" y2="134.35382907247964" style="stroke: magenta; stroke-width: 1;"></line>
<line x1="36.00000000000032" y1="134.35382907247964" x2="99.21985447626429" y2="97.85382907247956" style="stroke: magenta; stroke-width: 1;"></line>
<line x1="99.21985447626429" y1="97.85382907247956" x2="136.21985447626446" y2="33.7679491924312" style="stroke: magenta; stroke-width: 1;"></line>
<line x1="136.21985447626446" y1="33.7679491924312" x2="136.21985447626443" y2="-41.2320508075688" style="stroke: magenta; stroke-width: 1;"></line>
<line x1="136.21985447626443" y1="-41.2320508075688" x2="98.21985447626469" y2="-107.04998149518629" style="stroke: magenta; stroke-width: 1;"></line>
<line x1="98.21985447626469" y1="-107.04998149518629" x2="31.535898384862946" y2="-145.54998149518636" style="stroke: magenta; stroke-width: 1;"></line>
<line x1="31.535898384862946" y1="-145.54998149518636" x2="-46.464101615137054" y2="-145.54998149518622" style="stroke: magenta; stroke-width: 1;"></line>
<line x1="-46.464101615137054" y1="-145.54998149518622" x2="-114.88010851410779" y2="-106.04998149518636" style="stroke: magenta; stroke-width: 1;"></line>
<line x1="-114.88010851410779" y1="-106.04998149518636" x2="-154.88010851410775" y2="-36.76794919243123" style="stroke: magenta; stroke-width: 1;"></line>
<line x1="-154.88010851410775" y1="-36.76794919243123" x2="-154.88010851410803" y2="44.23205080756877" style="stroke: magenta; stroke-width: 1;"></line>
<line x1="-154.88010851410803" y1="44.23205080756877" x2="-113.88010851410806" y2="115.24613391789276" style="stroke: magenta; stroke-width: 1;"></line>
<line x1="-113.88010851410806" y1="115.24613391789276" x2="-41.99999999999956" y2="156.7461339178926" style="stroke: magenta; stroke-width: 1;"></line>
<line x1="-41.99999999999956" y1="156.7461339178926" x2="42.00000000000044" y2="156.74613391789273" style="stroke: magenta; stroke-width: 1;"></line>
<line x1="42.00000000000044" y1="156.74613391789273" x2="115.61215932167768" y2="114.24613391789265" style="stroke: magenta; stroke-width: 1;"></line>
<line x1="115.61215932167768" y1="114.24613391789265" x2="158.6121593216779" y2="39.76794919243106" style="stroke: magenta; stroke-width: 1;"></line>
<line x1="158.6121593216779" y1="39.76794919243106" x2="158.6121593216779" y2="-47.23205080756894" style="stroke: magenta; stroke-width: 1;"></line>
<line x1="158.6121593216779" y1="-47.23205080756894" x2="114.6121593216782" y2="-123.44228634059972" style="stroke: magenta; stroke-width: 1;"></line>
<line x1="114.6121593216782" y1="-123.44228634059972" x2="37.535898384863216" y2="-167.94228634059982" style="stroke: magenta; stroke-width: 1;"></line>
<line x1="37.535898384863216" y1="-167.94228634059982" x2="-52.464101615136784" y2="-167.94228634059968" style="stroke: magenta; stroke-width: 1;"></line>
<line x1="-52.464101615136784" y1="-167.94228634059968" x2="-131.2724133595208" y2="-122.44228634059988" style="stroke: magenta; stroke-width: 1;"></line>
<line x1="-131.2724133595208" y1="-122.44228634059988" x2="-177.27241335952078" y2="-42.7679491924315" style="stroke: magenta; stroke-width: 1;"></line>
<line x1="-177.27241335952078" y1="-42.7679491924315" x2="-177.27241335952112" y2="50.2320508075685" style="stroke: magenta; stroke-width: 1;"></line>
<line x1="-177.27241335952112" y1="50.2320508075685" x2="-130.27241335952118" y2="131.63843876330577" style="stroke: magenta; stroke-width: 1;"></line>
<line x1="-130.27241335952118" y1="131.63843876330577" x2="-47.9999999999994" y2="179.1384387633056" style="stroke: magenta; stroke-width: 1;"></line>
<line x1="-47.9999999999994" y1="179.1384387633056" x2="48.0000000000006" y2="179.1384387633058" style="stroke: magenta; stroke-width: 1;"></line>
<line x1="48.0000000000006" y1="179.1384387633058" x2="132.0044641670911" y2="130.63843876330571" style="stroke: magenta; stroke-width: 1;"></line>
<line x1="132.0044641670911" y1="130.63843876330571" x2="181.00446416709138" y2="45.76794919243089" style="stroke: magenta; stroke-width: 1;"></line>
<line x1="181.00446416709138" y1="45.76794919243089" x2="181.0044641670914" y2="-53.23205080756911" style="stroke: magenta; stroke-width: 1;"></line>
</g>
<g transform="translate(250 250)">
<polygon points="0,0 ,-5,-9 ,0,-7 ,5,-9 " stroke="black" fill="black" stroke-width="1" opacity="0" transform="translate(0.0,-0.0) rotate(-90.0,0,0)"></polygon>
<polygon points="0,16 ,-2,14 ,-1,10 ,-4,7 ,-7,9 ,-9,8 ,-6,5 ,-7,1 ,-5,-3 ,-8,-6 ,-6,-8 ,-4,-5 ,0,-7 ,4,-5 ,6,-8 ,8,-6 ,5,-3 ,7,1 ,6,5 ,9,8 ,7,9 ,4,7 ,1,10 ,2,14 " stroke="magenta" fill="black" stroke-width="1" opacity="1" transform="translate(181.0044641670914,-53.23205080756911) rotate(-3090.0,0,0)"></polygon>
</g>
<metadata><raw>from turtle import *

shape('turtle')
pencolor('magenta')

for i in range(100):
    forward(i)
    left(30)

done()</raw></metadata></svg>