<!--?xml version="1.0" standalone="no"?-->
<svg id="code_python_:raf:_svg" width="285" height="68" xmlns="http://www.w3.org/2000/svg" viewBox="236,236,285,68">
<g transform="translate(250 250)">
<line x1="0" y1="0" x2="0" y2="0" style="stroke: black; stroke-width: 1;"></line>
<line x1="0" y1="0" x2="0" y2="0" style="stroke: black; stroke-width: 1;"></line>
<line x1="0" y1="0" x2="0" y2="0" style="stroke: black; stroke-width: 1;"></line>
<line x1="0" y1="0" x2="0" y2="0" style="stroke: black; stroke-width: 1;"></line>
<line x1="0" y1="0" x2="0" y2="0" opacity="0" style="stroke: black; stroke-width: 1;"></line>
<line x1="0" y1="0" x2="5" y2="0" opacity="0" style="stroke: black; stroke-width: 1;"></line>
<line x1="5" y1="0" x2="5" y2="1" style="stroke: black; stroke-width: 1;"></line>
<line x1="5" y1="1" x2="5" y2="1" opacity="0" style="stroke: black; stroke-width: 1;"></line>
<line x1="5" y1="0" x2="10" y2="0" opacity="0" style="stroke: black; stroke-width: 1;"></line>
<line x1="10" y1="0" x2="10" y2="2" style="stroke: black; stroke-width: 1;"></line>
<line x1="10" y1="2" x2="10" y2="2" opacity="0" style="stroke: black; stroke-width: 1;"></line>
<line x1="10" y1="0" x2="15" y2="0" opacity="0" style="stroke: black; stroke-width: 1;"></line>
<line x1="15" y1="0" x2="15" y2="3" style="stroke: black; stroke-width: 1;"></line>
<line x1="15" y1="3" x2="15" y2="3" opacity="0" style="stroke: black; stroke-width: 1;"></line>
<line x1="15" y1="0" x2="20" y2="0" opacity="0" style="stroke: black; stroke-width: 1;"></line>
<line x1="20" y1="0" x2="20" y2="4" style="stroke: black; stroke-width: 1;"></line>
<line x1="20" y1="4" x2="20" y2="4" opacity="0" style="stroke: black; stroke-width: 1;"></line>
<line x1="20" y1="0" x2="25" y2="0" opacity="0" style="stroke: black; stroke-width: 1;"></line>
<line x1="25" y1="0" x2="25" y2="5" style="stroke: black; stroke-width: 1;"></line>
<line x1="25" y1="5" x2="25" y2="5" opacity="0" style="stroke: black; stroke-width: 1;"></line>
<line x1="25" y1="0" x2="30" y2="0" opacity="0" style="stroke: black; stroke-width: 1;"></line>
<line x1="30" y1="0" x2="30" y2="6" style="stroke: black; stroke-width: 1;"></line>
<line x1="30" y1="6" x2="30" y2="6" opacity="0" style="stroke: black; stroke-width: 1;"></line>
<line x1="30" y1="0" x2="35" y2="0" opacity="0" style="stroke: black; stroke-width: 1;"></line>
<line x1="35" y1="0" x2="35" y2="7" style="stroke: black; stroke-width: 1;"></line>
<line x1="35" y1="7" x2="35" y2="7" opacity="0" style="stroke: black; stroke-width: 1;"></line>
<line x1="35" y1="0" x2="40" y2="0" opacity="0" style="stroke: black; stroke-width: 1;"></line>
<line x1="40" y1="0" x2="40" y2="8" style="stroke: black; stroke-width: 1;"></line>
<line x1="40" y1="8" x2="40" y2="8" opacity="0" style="stroke: black; stroke-width: 1;"></line>
<line x1="40" y1="0" x2="45" y2="0" opacity="0" style="stroke: black; stroke-width: 1;"></line>
<line x1="45" y1="0" x2="45" y2="9" style="stroke: black; stroke-width: 1;"></line>
<line x1="45" y1="9" x2="45" y2="9" opacity="0" style="stroke: black; stroke-width: 1;"></line>
<line x1="45" y1="0" x2="50" y2="0" opacity="0" style="stroke: black; stroke-width: 1;"></line>
<line x1="50" y1="0" x2="50" y2="10" style="stroke: black; stroke-width: 1;"></line>
<line x1="50" y1="10" x2="50" y2="10" opacity="0" style="stroke: black; stroke-width: 1;"></line>
<line x1="50" y1="0" x2="55" y2="0" opacity="0" style="stroke: black; stroke-width: 1;"></line>
<line x1="55" y1="0" x2="55" y2="11" style="stroke: black; stroke-width: 1;"></line>
<line x1="55" y1="11" x2="55" y2="11" opacity="0" style="stroke: black; stroke-width: 1;"></line>
<line x1="55" y1="0" x2="60" y2="0" opacity="0" style="stroke: black; stroke-width: 1;"></line>
<line x1="60" y1="0" x2="60" y2="12" style="stroke: black; stroke-width: 1;"></line>
<line x1="60" y1="12" x2="60" y2="12" opacity="0" style="stroke: black; stroke-width: 1;"></line>
<line x1="60" y1="0" x2="65" y2="0" opacity="0" style="stroke: black; stroke-width: 1;"></line>
<line x1="65" y1="0" x2="65" y2="13" style="stroke: black; stroke-width: 1;"></line>
<line x1="65" y1="13" x2="65" y2="13" opacity="0" style="stroke: black; stroke-width: 1;"></line>
<line x1="65" y1="0" x2="70" y2="0" opacity="0" style="stroke: black; stroke-width: 1;"></line>
<line x1="70" y1="0" x2="70" y2="14" style="stroke: black; stroke-width: 1;"></line>
<line x1="70" y1="14" x2="70" y2="14" opacity="0" style="stroke: black; stroke-width: 1;"></line>
<line x1="70" y1="0" x2="75" y2="0" opacity="0" style="stroke: black; stroke-width: 1;"></line>
<line x1="75" y1="0" x2="75" y2="15" style="stroke: black; stroke-width: 1;"></line>
<line x1="75" y1="15" x2="75" y2="15" opacity="0" style="stroke: black; stroke-width: 1;"></line>
<line x1="75" y1="0" x2="80" y2="0" opacity="0" style="stroke: black; stroke-width: 1;"></line>
<line x1="80" y1="0" x2="80" y2="16" style="stroke: black; stroke-width: 1;"></line>
<line x1="80" y1="16" x2="80" y2="16" opacity="0" style="stroke: black; stroke-width: 1;"></line>
<line x1="80" y1="0" x2="85" y2="0" opacity="0" style="stroke: black; stroke-width: 1;"></line>
<line x1="85" y1="0" x2="85" y2="17" style="stroke: black; stroke-width: 1;"></line>
<line x1="85" y1="17" x2="85" y2="17" opacity="0" style="stroke: black; stroke-width: 1;"></line>
<line x1="85" y1="0" x2="90" y2="0" opacity="0" style="stroke: black; stroke-width: 1;"></line>
<line x1="90" y1="0" x2="90" y2="18" style="stroke: black; stroke-width: 1;"></line>
<line x1="90" y1="18" x2="90" y2="18" opacity="0" style="stroke: black; stroke-width: 1;"></line>
<line x1="90" y1="0" x2="95" y2="0" opacity="0" style="stroke: black; stroke-width: 1;"></line>
<line x1="95" y1="0" x2="95" y2="19" style="stroke: black; stroke-width: 1;"></line>
<line x1="95" y1="19" x2="95" y2="19" opacity="0" style="stroke: black; stroke-width: 1;"></line>
<line x1="95" y1="0" x2="100" y2="0" opacity="0" style="stroke: black; stroke-width: 1;"></line>
<line x1="100" y1="0" x2="100" y2="20" style="stroke: black; stroke-width: 1;"></line>
<line x1="100" y1="20" x2="100" y2="20" opacity="0" style="stroke: black; stroke-width: 1;"></line>
<line x1="100" y1="0" x2="105" y2="0" opacity="0" style="stroke: black; stroke-width: 1;"></line>
<line x1="105" y1="0" x2="105" y2="21" style="stroke: black; stroke-width: 1;"></line>
<line x1="105" y1="21" x2="105" y2="21" opacity="0" style="stroke: black; stroke-width: 1;"></line>
<line x1="105" y1="0" x2="110" y2="0" opacity="0" style="stroke: black; stroke-width: 1;"></line>
<line x1="110" y1="0" x2="110" y2="22" style="stroke: black; stroke-width: 1;"></line>
<line x1="110" y1="22" x2="110" y2="22" opacity="0" style="stroke: black; stroke-width: 1;"></line>
<line x1="110" y1="0" x2="115" y2="0" opacity="0" style="stroke: black; stroke-width: 1;"></line>
<line x1="115" y1="0" x2="115" y2="23" style="stroke: black; stroke-width: 1;"></line>
<line x1="115" y1="23" x2="115" y2="23" opacity="0" style="stroke: black; stroke-width: 1;"></line>
<line x1="115" y1="0" x2="120" y2="0" opacity="0" style="stroke: black; stroke-width: 1;"></line>
<line x1="120" y1="0" x2="120" y2="24" style="stroke: black; stroke-width: 1;"></line>
<line x1="120" y1="24" x2="120" y2="24" opacity="0" style="stroke: black; stroke-width: 1;"></line>
<line x1="120" y1="0" x2="125" y2="0" opacity="0" style="stroke: black; stroke-width: 1;"></line>
<line x1="125" y1="0" x2="125" y2="25" style="stroke: black; stroke-width: 1;"></line>
<line x1="125" y1="25" x2="125" y2="25" opacity="0" style="stroke: black; stroke-width: 1;"></line>
<line x1="125" y1="0" x2="130" y2="0" opacity="0" style="stroke: black; stroke-width: 1;"></line>
<line x1="130" y1="0" x2="130" y2="26" style="stroke: black; stroke-width: 1;"></line>
<line x1="130" y1="26" x2="130" y2="26" opacity="0" style="stroke: black; stroke-width: 1;"></line>
<line x1="130" y1="0" x2="135" y2="0" opacity="0" style="stroke: black; stroke-width: 1;"></line>
<line x1="135" y1="0" x2="135" y2="27" style="stroke: black; stroke-width: 1;"></line>
<line x1="135" y1="27" x2="135" y2="27" opacity="0" style="stroke: black; stroke-width: 1;"></line>
<line x1="135" y1="0" x2="140" y2="0" opacity="0" style="stroke: black; stroke-width: 1;"></line>
<line x1="140" y1="0" x2="140" y2="28" style="stroke: black; stroke-width: 1;"></line>
<line x1="140" y1="28" x2="140" y2="28" opacity="0" style="stroke: black; stroke-width: 1;"></line>
<line x1="140" y1="0" x2="145" y2="0" opacity="0" style="stroke: black; stroke-width: 1;"></line>
<line x1="145" y1="0" x2="145" y2="29" style="stroke: black; stroke-width: 1;"></line>
<line x1="145" y1="29" x2="145" y2="29" opacity="0" style="stroke: black; stroke-width: 1;"></line>
<line x1="145" y1="0" x2="150" y2="0" opacity="0" style="stroke: black; stroke-width: 1;"></line>
<line x1="150" y1="0" x2="150" y2="30" style="stroke: black; stroke-width: 1;"></line>
<line x1="150" y1="30" x2="150" y2="30" opacity="0" style="stroke: black; stroke-width: 1;"></line>
<line x1="150" y1="0" x2="155" y2="0" opacity="0" style="stroke: black; stroke-width: 1;"></line>
<line x1="155" y1="0" x2="155" y2="31" style="stroke: black; stroke-width: 1;"></line>
<line x1="155" y1="31" x2="155" y2="31" opacity="0" style="stroke: black; stroke-width: 1;"></line>
<line x1="155" y1="0" x2="160" y2="0" opacity="0" style="stroke: black; stroke-width: 1;"></line>
<line x1="160" y1="0" x2="160" y2="32" style="stroke: black; stroke-width: 1;"></line>
<line x1="160" y1="32" x2="160" y2="32" opacity="0" style="stroke: black; stroke-width: 1;"></line>
<line x1="160" y1="0" x2="165" y2="0" opacity="0" style="stroke: black; stroke-width: 1;"></line>
<line x1="165" y1="0" x2="165" y2="33" style="stroke: black; stroke-width: 1;"></line>
<line x1="165" y1="33" x2="165" y2="33" opacity="0" style="stroke: black; stroke-width: 1;"></line>
<line x1="165" y1="0" x2="170" y2="0" opacity="0" style="stroke: black; stroke-width: 1;"></line>
<line x1="170" y1="0" x2="170" y2="34" style="stroke: black; stroke-width: 1;"></line>
<line x1="170" y1="34" x2="170" y2="34" opacity="0" style="stroke: black; stroke-width: 1;"></line>
<line x1="170" y1="0" x2="175" y2="0" opacity="0" style="stroke: black; stroke-width: 1;"></line>
<line x1="175" y1="0" x2="175" y2="35" style="stroke: black; stroke-width: 1;"></line>
<line x1="175" y1="35" x2="175" y2="35" opacity="0" style="stroke: black; stroke-width: 1;"></line>
<line x1="175" y1="0" x2="180" y2="0" opacity="0" style="stroke: black; stroke-width: 1;"></line>
<line x1="180" y1="0" x2="180" y2="36" style="stroke: black; stroke-width: 1;"></line>
<line x1="180" y1="36" x2="180" y2="36" opacity="0" style="stroke: black; stroke-width: 1;"></line>
<line x1="180" y1="0" x2="185" y2="0" opacity="0" style="stroke: black; stroke-width: 1;"></line>
<line x1="185" y1="0" x2="185" y2="37" style="stroke: black; stroke-width: 1;"></line>
<line x1="185" y1="37" x2="185" y2="37" opacity="0" style="stroke: black; stroke-width: 1;"></line>
<line x1="185" y1="0" x2="190" y2="0" opacity="0" style="stroke: black; stroke-width: 1;"></line>
<line x1="190" y1="0" x2="190" y2="38" style="stroke: black; stroke-width: 1;"></line>
<line x1="190" y1="38" x2="190" y2="38" opacity="0" style="stroke: black; stroke-width: 1;"></line>
<line x1="190" y1="0" x2="195" y2="0" opacity="0" style="stroke: black; stroke-width: 1;"></line>
<line x1="195" y1="0" x2="195" y2="39" style="stroke: black; stroke-width: 1;"></line>
<line x1="195" y1="39" x2="195" y2="39" opacity="0" style="stroke: black; stroke-width: 1;"></line>
<line x1="195" y1="0" x2="200" y2="0" opacity="0" style="stroke: black; stroke-width: 1;"></line>
<line x1="200" y1="0" x2="200" y2="40" style="stroke: black; stroke-width: 1;"></line>
<line x1="200" y1="40" x2="200" y2="40" opacity="0" style="stroke: black; stroke-width: 1;"></line>
<line x1="200" y1="0" x2="205" y2="0" opacity="0" style="stroke: black; stroke-width: 1;"></line>
<line x1="205" y1="0" x2="205" y2="41" style="stroke: black; stroke-width: 1;"></line>
<line x1="205" y1="41" x2="205" y2="41" opacity="0" style="stroke: black; stroke-width: 1;"></line>
<line x1="205" y1="0" x2="210" y2="0" opacity="0" style="stroke: black; stroke-width: 1;"></line>
<line x1="210" y1="0" x2="210" y2="42" style="stroke: black; stroke-width: 1;"></line>
<line x1="210" y1="42" x2="210" y2="42" opacity="0" style="stroke: black; stroke-width: 1;"></line>
<line x1="210" y1="0" x2="215" y2="0" opacity="0" style="stroke: black; stroke-width: 1;"></line>
<line x1="215" y1="0" x2="215" y2="43" style="stroke: black; stroke-width: 1;"></line>
<line x1="215" y1="43" x2="215" y2="43" opacity="0" style="stroke: black; stroke-width: 1;"></line>
<line x1="215" y1="0" x2="220" y2="0" opacity="0" style="stroke: black; stroke-width: 1;"></line>
<line x1="220" y1="0" x2="220" y2="44" style="stroke: black; stroke-width: 1;"></line>
<line x1="220" y1="44" x2="220" y2="44" opacity="0" style="stroke: black; stroke-width: 1;"></line>
<line x1="220" y1="0" x2="225" y2="0" opacity="0" style="stroke: black; stroke-width: 1;"></line>
<line x1="225" y1="0" x2="225" y2="45" style="stroke: black; stroke-width: 1;"></line>
<line x1="225" y1="45" x2="225" y2="45" opacity="0" style="stroke: black; stroke-width: 1;"></line>
<line x1="225" y1="0" x2="230" y2="0" opacity="0" style="stroke: black; stroke-width: 1;"></line>
<line x1="230" y1="0" x2="230" y2="46" style="stroke: black; stroke-width: 1;"></line>
<line x1="230" y1="46" x2="230" y2="46" opacity="0" style="stroke: black; stroke-width: 1;"></line>
<line x1="230" y1="0" x2="235" y2="0" opacity="0" style="stroke: black; stroke-width: 1;"></line>
<line x1="235" y1="0" x2="235" y2="47" style="stroke: black; stroke-width: 1;"></line>
<line x1="235" y1="47" x2="235" y2="47" opacity="0" style="stroke: black; stroke-width: 1;"></line>
<line x1="235" y1="0" x2="240" y2="0" opacity="0" style="stroke: black; stroke-width: 1;"></line>
<line x1="240" y1="0" x2="240" y2="48" style="stroke: black; stroke-width: 1;"></line>
<line x1="240" y1="48" x2="240" y2="48" opacity="0" style="stroke: black; stroke-width: 1;"></line>
<line x1="240" y1="0" x2="245" y2="0" opacity="0" style="stroke: black; stroke-width: 1;"></line>
<line x1="245" y1="0" x2="245" y2="49" style="stroke: black; stroke-width: 1;"></line>
<line x1="245" y1="49" x2="245" y2="49" opacity="0" style="stroke: black; stroke-width: 1;"></line>
<line x1="245" y1="0" x2="250" y2="0" opacity="0" style="stroke: black; stroke-width: 1;"></line>
</g>
<g transform="translate(250 250)">
<polygon points="0,0 ,-5,-9 ,0,-7 ,5,-9 " stroke="black" fill="black" stroke-width="1" opacity="0" transform="translate(0.0,-0.0) rotate(-90.0,0,0)"></polygon>
<polygon points="0,16 ,-2,14 ,-1,10 ,-4,7 ,-7,9 ,-9,8 ,-6,5 ,-7,1 ,-5,-3 ,-8,-6 ,-6,-8 ,-4,-5 ,0,-7 ,4,-5 ,6,-8 ,8,-6 ,5,-3 ,7,1 ,6,5 ,9,8 ,7,9 ,4,7 ,1,10 ,2,14 " stroke="black" fill="black" stroke-width="1" opacity="1" transform="translate(250.0,-0.0) rotate(-90.0,0,0)"></polygon>
</g>
<metadata><raw>from turtle import *

shape('turtle')

for i in range(50):
    right(90)
    forward(i)

    penup()
    back(i)
    left(90)
    forward(5)
    pendown()

done()</raw></metadata></svg>